<svg id="Layer_1" enable-background="new 0 0 510 510" height="512" viewBox="0 0 510 510" width="512" xmlns="http://www.w3.org/2000/svg"><g><g><g><path d="m482.238 315.625c.226-.874.444-1.754.661-2.635-.213.881-.437 1.758-.661 2.635z" fill="#afe6ff"/></g><g><path d="m244.916 10.084c-94.25 0-152.304 53.159-152.463 53.248-3.637 16.79-9.964 41.156-9.964 59.035 0 135.263 114.067 244.889 249.33 244.889 57.643 0 110.605-26.839 152.442-60.162.171-1.044 5.571-22.548 5.571-52.094 0-135.263-109.652-244.916-244.916-244.916z" fill="#dd6938"/></g><path d="m331.798 360.342c-135.263 0-244.916-109.653-244.916-244.916 0-17.879 1.934-35.304 5.571-52.094-.006.005-.011.009-.017.014-12.02 9.576-23.12 20.259-33.145 31.894l-17.463 296.695c44.013 65.148 118.549 107.981 203.088 107.981 114.334 0 210.342-78.356 237.322-184.291.223-.877.447-1.754.661-2.635.102-.418 1.025-4.344 1.362-5.896-41.837 33.323-94.82 53.248-152.463 53.248z" fill="#d80a61"/></g><g><g><path d="m157.544 66.705c-24.224 0-47.35 4.7-68.517 13.237-49.775 46.334-77.037 111.937-74.843 179.904.324 10.051.758 20.091 1.332 29.834 4.359 73.923 64.701 132.708 138.743 133.861 1.092.017 2.187.026 3.286.026 54.891 0 104.146-14.423 137.737-52.654 28.12-32.004 45.262-73.89 45.544-119.774.623-101.433-81.848-184.435-183.282-184.434z" fill="#f1d333"/><g><path d="m250.15 138.681c-2.098 0-4.217-.624-6.064-1.922-4.596-3.229-9.432-6.212-14.375-8.865-5.14-2.758-7.07-9.162-4.312-14.303 2.76-5.14 9.163-7.071 14.303-4.312 5.684 3.051 11.246 6.48 16.53 10.195 4.773 3.354 5.923 9.942 2.569 14.715-2.056 2.927-5.327 4.492-8.651 4.492z" fill="#f9ef63"/></g><g><path d="m204.275 117.317c-1.085 0-2.188-.169-3.276-.523-13.979-4.557-28.599-6.868-43.453-6.868-10.892 0-21.736 1.252-32.232 3.723-5.673 1.335-11.364-2.183-12.702-7.862-1.337-5.678 2.183-11.365 7.862-12.702 12.079-2.844 24.552-4.285 37.071-4.285 17.082 0 33.905 2.661 50.002 7.909 5.546 1.808 8.577 7.77 6.768 13.317-1.453 4.457-5.591 7.291-10.04 7.291z" fill="#f9ef63"/></g><path d="m59.302 95.248c-36.95 42.886-59.302 98.703-59.302 159.752 0 50.906 15.535 98.181 42.117 137.353 31.512 25.582 71.676 40.921 115.428 40.921 54.891 0 104.138-24.137 137.729-62.368-21.167 8.537-44.289 13.248-68.514 13.248-101.225 0-183.284-82.059-183.284-183.284 0-46.334 17.201-88.645 45.556-120.916-10.42 4.201-20.363 9.335-29.73 15.294z" fill="#eab14d"/></g><g><path d="m160.285 226.794c9.795 0 18.215 10.073 21.956 24.514 1.328-5.124 2.072-10.794 2.072-16.765 0-22.798 1.074-56.719-24.028-56.72-25.256 0-24.028 33.922-24.028 56.72 0 5.971.744 11.641 2.072 16.765 3.742-14.441 12.162-24.514 21.956-24.514z" fill="#eab14d"/></g><g><path d="m160.285 208.206c9.795 0 18.215 10.073 21.956 24.514 1.328-5.124 2.072-10.794 2.072-16.765 0-22.798-10.758-41.279-24.028-41.279s-24.028 18.481-24.028 41.279c0 5.971.744 11.641 2.072 16.765 3.742-14.44 12.162-24.514 21.956-24.514z" fill="#783c28"/></g><g><path d="m274.417 228.367c9.795 0 18.215 10.073 21.956 24.514 1.328-5.124 2.072-10.794 2.072-16.765 0-22.798 1.074-56.719-24.028-56.72-25.256 0-24.028 33.922-24.028 56.72 0 5.971.744 11.641 2.072 16.765 3.741-14.44 12.161-24.514 21.956-24.514z" fill="#eab14d"/></g><g><path d="m274.417 209.78c9.795 0 18.215 10.073 21.956 24.514 1.328-5.124 2.072-10.794 2.072-16.765 0-22.798-10.758-41.279-24.028-41.279s-24.028 18.481-24.028 41.279c0 5.971.744 11.641 2.072 16.765 3.741-14.441 12.161-24.514 21.956-24.514z" fill="#783c28"/></g><g><circle cx="106.393" cy="302.166" fill="#fa870a" r="47.166"/></g><g><circle cx="316.161" cy="299.698" fill="#fa870a" r="47.166"/></g><g><path d="m218.151 356.959c-31.053 0-62.095-11.816-85.735-35.455-3-3.001-3-7.866 0-10.867 3.001-3 7.866-3 10.867 0 41.281 41.281 108.453 41.284 149.735 0 3.002-3 7.867-2.998 10.867 0 3 3.001 3 7.867 0 10.867-23.635 23.633-54.69 35.455-85.734 35.455z" fill="#783c28"/></g><g><path d="m499.187 237.515c-9.115-3.974-19.725.193-23.7 9.307l-23.772 54.519-106.963-32.593s-28.116 128.167 25.715 154.818c37.85 11.533 77.018-.38 88.551-38.23l49.475-124.122c3.976-9.114-.191-19.725-9.306-23.699z" fill="#f1d333"/><g><path d="m312.342 246.765c11.714-2.569 23.293 4.845 25.861 16.559l12.22 55.724-33.118 51.723-21.522-98.144c-2.569-11.715 4.845-23.293 16.559-25.862z" fill="#eab14d"/></g><g><path d="m389.643 208.917-28.741 134.79-35.217-7.509 28.74-134.79c2.074-9.725 11.638-15.927 21.363-13.854 9.726 2.074 15.928 11.638 13.855 21.363z" fill="#f1d333"/></g><g><path d="m438.016 202.376-40.171 131.836-34.445-10.496 40.171-131.836c2.898-9.512 12.958-14.873 22.47-11.975 9.512 2.899 14.873 12.959 11.975 22.471z" fill="#f1d333"/></g><g><path d="m426.041 179.906c-9.512-2.898-19.572 2.463-22.47 11.975l-26.429 86.737c8.579 2.614 17.654-2.221 20.268-10.801l21.436-70.35c2.146-7.043 8.221-11.8 15.09-12.623-2.086-2.238-4.759-3.983-7.895-4.938z" fill="#eab14d"/></g><g><path d="m476.661 225.822-48.299 129.079-33.725-12.619 48.299-129.079c3.485-9.313 13.859-14.037 23.172-10.553 9.314 3.485 14.038 13.859 10.553 23.172z" fill="#f1d333"/></g><g><path d="m414.231 289.919c8.977 2.735 18.533-1.981 21.822-10.771l22.702-60.671c2.347-6.272 7.822-10.449 13.99-11.452-2.298-2.386-5.277-4.204-8.841-5.042-8.905-2.094-17.931 3.104-21.136 11.672z" fill="#eab14d"/></g><g><path d="m451.716 301.341c7.999 2.437 16.555-1.507 19.897-9.172l18.73-42.955c2.251-5.162 6.632-8.733 11.663-10.141-.88-.589-1.814-1.12-2.819-1.558-9.114-3.975-19.725.193-23.699 9.307z" fill="#eab14d"/></g><g><path d="m319.767 350.75 24.986-82.001 137.066 41.765-24.986 82.001c-11.533 37.85-51.566 59.184-89.415 47.65-37.85-11.533-59.184-51.566-47.651-89.415z" fill="#f1d333"/></g><g><path d="m340.829 339.355 28.741-134.79c1.489-6.985 6.849-12.132 13.351-13.721-2.047-1.559-4.449-2.717-7.132-3.289-9.725-2.074-19.289 4.129-21.363 13.854l-28.74 134.79 35.217 7.509.015-.069z" fill="#eab14d"/></g><g><path d="m400.898 398.261c-38.698-8.251-63.38-46.311-55.128-85.009l9.435-41.319-10.375-3.481-25.064 82.297c-11.533 37.85 9.801 77.882 47.651 89.415 37.85 11.533 77.882-9.801 89.415-47.65l2.187-7.178c-16.008 12.087-36.963 17.437-58.121 12.925z" fill="#eab14d"/></g></g></g></g></svg>